<svg width="30" height="30" viewBox="0 0 30 30" fill="none" xmlns="http://www.w3.org/2000/svg">
<g clip-path="url(#clip0_20_565)">
<path d="M14.9998 12.2727V18.0818H23.0725C22.718 19.95 21.6542 21.5318 20.0588 22.5954L24.9269 26.3728C27.7633 23.7547 29.3997 19.9092 29.3997 15.341C29.3997 14.2774 29.3042 13.2546 29.1269 12.2728L14.9998 12.2727Z" fill="#4285F4"/>
<path d="M6.59333 17.855L5.49538 18.6955L1.60895 21.7227C4.07712 26.6181 9.13584 30 14.9994 30C19.0493 30 22.4447 28.6636 24.9266 26.3728L20.0585 22.5955C18.7221 23.4955 17.0175 24.041 14.9994 24.041C11.0995 24.041 7.78591 21.4092 6.59946 17.8637L6.59333 17.855Z" fill="#34A853"/>
<path d="M1.60897 8.27727C0.586302 10.2954 0 12.5727 0 14.9999C0 17.4271 0.586302 19.7044 1.60897 21.7225C1.60897 21.7361 6.59997 17.8498 6.59997 17.8498C6.29997 16.9498 6.12265 15.9953 6.12265 14.9997C6.12265 14.0042 6.29997 13.0497 6.59997 12.1497L1.60897 8.27727Z" fill="#FBBC05"/>
<path d="M14.9997 5.97272C17.2089 5.97272 19.1725 6.73634 20.7406 8.20909L25.0361 3.91369C22.4315 1.48646 19.0498 0 14.9997 0C9.13615 0 4.07712 3.36818 1.60895 8.27728L6.59979 12.15C7.78608 8.60452 11.0998 5.97272 14.9997 5.97272Z" fill="#EA4335"/>
</g>
<defs>
<clipPath id="clip0_20_565">
<rect width="30" height="30" fill="white"/>
</clipPath>
</defs>
</svg>
